<?xml version="1.0" encoding="utf-8"?>
<!-- Generator: Adobe Illustrator 21.1.0, SVG Export Plug-In . SVG Version: 6.00 Build 0)  -->
<svg version="1.1"
	 id="svg1" inkscape:version="0.39" sodipodi:docbase="/home/nicu/Desktop/camel" sodipodi:docname="waving_flag.svg" sodipodi:version="0.32" xmlns:cc="http://web.resource.org/cc/" xmlns:dc="http://purl.org/dc/elements/1.1/" xmlns:inkscape="http://www.inkscape.org/namespaces/inkscape" xmlns:rdf="http://www.w3.org/1999/02/22-rdf-syntax-ns#" xmlns:sodipodi="http://sodipodi.sourceforge.net/DTD/sodipodi-0.dtd"
	 xmlns="http://www.w3.org/2000/svg" xmlns:xlink="http://www.w3.org/1999/xlink" x="0px" y="0px" viewBox="0 0 160 160"
	 style="enable-background:new 0 0 160 160;" xml:space="preserve">
<style type="text/css">
	.st0{fill:#FFFFFF;}
</style>
<sodipodi:namedview  bordercolor="#666666" borderopacity="1.0" id="base" inkscape:cx="80.000000" inkscape:cy="80.000000" inkscape:pageopacity="0.0" inkscape:pageshadow="2" inkscape:window-height="694" inkscape:window-width="911" inkscape:window-x="86" inkscape:window-y="32" inkscape:zoom="1.0000000" pagecolor="#ffffff">
	</sodipodi:namedview>
<path id="path2171" class="st0" d="M132.1,6.7c-1.4,0.9-28.4,9.5-38.1,10.9c0,0,0,0.1,0,0.1C80.4,19.5,67,2,55,8.7c0,0,0,0.1,0,0.1
	c-15.3,2.6-30,6.2-45,11.1c0,0,18.9,52.2,20.3,56.8C38.7,71,69.6,64.1,75,63c0,0,0,0.1,0,0.1c15.2,2.5,18.6,12.2,37.7,7.7
	c0,0,0.1,0.4,0.1,0.4c4.6-0.9,37.8-11.2,37.8-11.2S133.5,5.8,132.1,6.7z"/>
<path id="path2167" class="st0" d="M7.1,15.6l3.2,3.7l44.4,122.1l-1.4,3.7l-2.9-1.7L5.7,19.6l-0.6-2.3L7.1,15.6z"/>
<path id="path908" sodipodi:nodetypes="ccccccccccccccccccccccccccc" class="st0" d="M133.2,5.2c-14.7,5.1-29.5,11.2-45.2,12.1
	C77.8,15.8,70.7,3.7,59.6,6.7c-16.7,2.9-32.9,7.6-49.2,12c-3.6-9.1-8.5-2.8-4.1,6c14.6,40.2,29.7,80.5,44.4,120.7
	c10.5,6.9,1.7-12.7,0.1-17.6c-6.2-17-12.5-34.1-18.5-51.1C47.3,70.9,63,64.9,79.3,64.3c9.2,2.4,16.6,12.8,27.4,8.7
	c15.2-2.1,29.6-7.9,44.3-12.1c0.5-8.1-5.6-17.3-7.5-25.9C140,25.1,136.6,15.1,133.2,5.2z M132,7.6c5.9,17.2,11.8,34.3,17.7,51.5
	c-16.7,5.1-33.3,11.9-51,12.6c-9.7-2.2-16.5-12-28.3-8.5c-13.4,2.4-26.3,6.7-39,11.7C24.8,56.6,18,38.5,11.2,20.4
	c17.4-4.6,34.7-10,52.7-12.2C74.5,9.5,81.8,22,93.4,18.8C106.7,16.7,119.4,12.2,132,7.6z M16.9,41.1c11.3,29.8,22.1,59.8,32.9,89.7
	c2.5,2.9,6.5,18.2,0.9,10.6c-14.7-41.3-29.8-83-44.7-124.2C8.9,13.9,13.1,33.2,16.9,41.1z"/>
</svg>
