<?xml version="1.0" encoding="utf-8"?>
<!-- Generator: Adobe Illustrator 21.1.0, SVG Export Plug-In . SVG Version: 6.00 Build 0)  -->
<svg version="1.1" id="Layer_1" xmlns="http://www.w3.org/2000/svg" xmlns:xlink="http://www.w3.org/1999/xlink" x="0px" y="0px"
	 viewBox="0 0 274.3 494" style="enable-background:new 0 0 274.3 494;" xml:space="preserve">
<style type="text/css">
	.st0{fill:#FFFFFF;}
</style>
<g id="Layer_1_1_">
	<path class="st0" d="M197.9,185.6l60.2,3.3c5.8,0.3,10.3,5.2,10.1,11l-0.7,22.7c-0.2,5.6-4.6,10.1-10.2,10.4l-73,3.3
		c-5.2,0.2-10.1-1.2-14.1-3.9l-4.3-2.9l-13.6-9.1l-3.3,16.1l77.5,230.6c1.9,5.7-1.3,12-7.1,13.7l-40,11.9
		c-5.5,1.7-11.4-1.4-13.2-6.9L126,366c-3.2-9.6-16.7-9.8-20.2-0.3L61,486.9c-2,5.4-7.9,8.3-13.4,6.5L7.4,480.2
		c-5.5-1.8-8.6-7.7-6.9-13.3l66.6-217.3c0.4-1.2,0.5-2.5,0.4-3.8l-7-112.6c-0.3-4.9,2.8-9.4,7.5-10.9l179.1-56.9
		c5-1.6,10.5,0.7,12.8,5.4l14.4,28.9c0,0-99.9,45.8-110,51l-8.7,0.7l35.8,31.4C193.2,184.5,195.5,185.4,197.9,185.6z M135.6,0
		L61.7,5.2c-5.9,0.4-10.4,5.6-9.9,11.5l4.9,61.8c0.5,5.9,5.6,10.3,11.4,9.9l73.9-5.2c5.9-0.4,10.4-5.6,9.9-11.5L147,9.9
		C146.6,4,141.5-0.4,135.6,0z"/>
</g>
<g id="Layer_2">
</g>
</svg>
